<svg width="135" height="21" viewBox="0 0 135 21" fill="none" xmlns="http://www.w3.org/2000/svg">
<path d="M10.2744 1.29449L12.2829 7.16722L12.3408 7.33631H12.5195H18.9826L13.7651 10.9375L13.6093 11.0451L13.6705 11.2242L15.6703 17.0713L10.4164 13.4449L10.2744 13.3469L10.1323 13.4449L4.87837 17.0713L6.87819 11.2242L6.93945 11.0451L6.78365 10.9375L1.5661 7.33631H8.02921H8.20793L8.26576 7.16722L10.2744 1.29449Z" fill="#D9FC67" stroke="#D9FC67" stroke-width="0.5"/>
<path d="M36.7744 1.33099L38.6695 7.16357L38.7256 7.33631H38.9072H45.04L40.0785 10.941L39.9315 11.0478L39.9877 11.2205L41.8828 17.0531L36.9213 13.4484L36.7744 13.3416L36.6274 13.4484L31.6659 17.0531L33.561 11.2205L33.6172 11.0478L33.4702 10.941L28.5087 7.33631H34.6415H34.8231L34.8792 7.16357L36.7744 1.33099Z" fill="#D9FC67" stroke="#D9FC67" stroke-width="0.5"/>
<path d="M63.2744 1.29449L65.2829 7.16722L65.3408 7.33631H65.5195H71.9826L66.7651 10.9375L66.6093 11.0451L66.6705 11.2242L68.6703 17.0713L63.4164 13.4449L63.2744 13.3469L63.1323 13.4449L57.8784 17.0713L59.8782 11.2242L59.9394 11.0451L59.7837 10.9375L54.5661 7.33631H61.0292H61.2079L61.2658 7.16722L63.2744 1.29449Z" fill="#D9FC67" stroke="#D9FC67" stroke-width="0.5"/>
<path d="M89.7744 1.33099L91.6695 7.16357L91.7256 7.33631H91.9072H98.04L93.0785 10.941L92.9315 11.0478L92.9877 11.2205L94.8828 17.0531L89.9213 13.4484L89.7744 13.3416L89.6274 13.4484L84.6659 17.0531L86.561 11.2205L86.6172 11.0478L86.4702 10.941L81.5087 7.33631H87.6415H87.8231L87.8792 7.16357L89.7744 1.33099Z" fill="#D9FC67" stroke="#D9FC67" stroke-width="0.5"/>
<path d="M116.274 1.29449L118.283 7.16722L118.341 7.33631H118.519H124.983L119.765 10.9375L119.609 11.0451L119.671 11.2242L121.67 17.0713L116.416 13.4449L116.274 13.3469L116.132 13.4449L110.878 17.0713L112.878 11.2242L112.939 11.0451L112.784 10.9375L107.566 7.33631H114.029H114.208L114.266 7.16722L116.274 1.29449Z" fill="#D9FC67" stroke="#D9FC67" stroke-width="0.5"/>
</svg>
