<svg width="35" height="36" viewBox="0 0 35 36" fill="none" xmlns="http://www.w3.org/2000/svg">
<path d="M34.4456 18.2733C34.4456 27.9601 26.8501 35.8127 17.4806 35.8127C8.11111 35.8127 0.515625 27.9601 0.515625 18.2733C0.515625 8.58655 8.11111 0.733887 17.4806 0.733887C26.8501 0.733887 34.4456 8.58655 34.4456 18.2733Z" fill="#D2FC67"/>
<path fill-rule="evenodd" clip-rule="evenodd" d="M15.5129 11.6754L22.8759 10.7873C23.3277 10.7328 23.7379 11.0567 23.7921 11.5109L24.6757 18.9117C24.7299 19.3658 24.4076 19.7781 23.9557 19.8326C23.5039 19.8871 23.0937 19.5632 23.0395 19.109L22.3929 13.6935L12.6742 26.1264L11.3784 25.103L21.0971 12.6701L15.7093 13.32C15.2575 13.3745 14.8472 13.0505 14.793 12.5963C14.7388 12.1422 15.0611 11.7299 15.5129 11.6754Z" fill="black"/>
</svg>
