<svg width="127" height="19" viewBox="0 0 127 19" fill="none" xmlns="http://www.w3.org/2000/svg">
<path d="M10.7188 0.772521L12.7273 6.64524L12.7852 6.81434H12.9639H19.427L14.2095 10.4156L14.0537 10.5231L14.1149 10.7022L16.1147 16.5493L10.8608 12.9229L10.7188 12.8249L10.5767 12.9229L5.32276 16.5493L7.32258 10.7022L7.38385 10.5231L7.22805 10.4156L2.0105 6.81434H8.47361H8.65232L8.71016 6.64524L10.7188 0.772521Z" fill="#D9FC67" stroke="#D9FC67" stroke-width="0.5"/>
<path d="M37.2188 0.809018L39.1139 6.64159L39.17 6.81434H39.3516H45.4844L40.5229 10.4191L40.3759 10.5258L40.4321 10.6986L42.3272 16.5312L37.3657 12.9264L37.2188 12.8197L37.0718 12.9264L32.1103 16.5312L34.0054 10.6986L34.0616 10.5258L33.9146 10.4191L28.9531 6.81434H35.0859H35.2675L35.3236 6.64159L37.2188 0.809018Z" fill="#D9FC67" stroke="#D9FC67" stroke-width="0.5"/>
<path d="M63.7188 0.772521L65.7273 6.64524L65.7852 6.81434H65.9639H72.427L67.2095 10.4156L67.0537 10.5231L67.1149 10.7022L69.1147 16.5493L63.8608 12.9229L63.7188 12.8249L63.5767 12.9229L58.3228 16.5493L60.3226 10.7022L60.3838 10.5231L60.228 10.4156L55.0105 6.81434H61.4736H61.6523L61.7102 6.64524L63.7188 0.772521Z" fill="#D9FC67" stroke="#D9FC67" stroke-width="0.5"/>
<path d="M90.2188 0.809018L92.1139 6.64159L92.17 6.81434H92.3516H98.4844L93.5229 10.4191L93.3759 10.5258L93.4321 10.6986L95.3272 16.5312L90.3657 12.9264L90.2188 12.8197L90.0718 12.9264L85.1103 16.5312L87.0054 10.6986L87.0616 10.5258L86.9146 10.4191L81.9531 6.81434H88.0859H88.2675L88.3236 6.64159L90.2188 0.809018Z" fill="#D9FC67" stroke="#D9FC67" stroke-width="0.5"/>
<path d="M116.719 0.772521L118.727 6.64524L118.785 6.81434H118.964H125.427L120.209 10.4156L120.054 10.5231L120.115 10.7022L122.115 16.5493L116.861 12.9229L116.719 12.8249L116.577 12.9229L111.323 16.5493L113.323 10.7022L113.384 10.5231L113.228 10.4156L108.01 6.81434H114.474H114.652L114.71 6.64524L116.719 0.772521Z" fill="#D9FC67" stroke="#D9FC67" stroke-width="0.5"/>
</svg>
