<?xml version="1.0" encoding="utf-8"?>
<!-- Generator: Adobe Illustrator 16.0.0, SVG Export Plug-In . SVG Version: 6.00 Build 0)  -->
<!DOCTYPE svg PUBLIC "-//W3C//DTD SVG 1.1//EN" "http://www.w3.org/Graphics/SVG/1.1/DTD/svg11.dtd">
<svg version="1.1" id="Layer_1" xmlns="http://www.w3.org/2000/svg" xmlns:xlink="http://www.w3.org/1999/xlink" x="0px" y="0px"
	 width="176px" height="171px" viewBox="0 0 176 171" enable-background="new 0 0 176 171" xml:space="preserve">
<circle fill="#D9FC67" stroke="#FFFFFF" stroke-width="0.3" cx="87.951" cy="89.74" r="25.35"/>
<circle opacity="0.4" fill="#FAFAFA" fill-opacity="0.2" stroke="#FFFFFF" stroke-width="0.3" enable-background="new    " cx="145.794" cy="76.706" r="28.85"/>
<circle opacity="0.4" fill="#FAFAFA" fill-opacity="0.2" stroke="#FFFFFF" stroke-width="0.3" enable-background="new    " cx="56.481" cy="140.706" r="28.85"/>
<circle opacity="0.4" fill="#FAFAFA" fill-opacity="0.2" stroke="#FFFFFF" stroke-width="0.3" enable-background="new    " cx="122.038" cy="140.824" r="28.842"/>
<circle opacity="0.4" fill="#FAFAFA" fill-opacity="0.2" stroke="#FFFFFF" stroke-width="0.3" enable-background="new    " cx="87.433" cy="30.737" r="28.842"/>
<path d="M75.738,88.24v-4.56h-1.84v-1.04h4.96v1.04h-1.84v4.56H75.738z M79.772,88.24l-1.016-4h1.224l0.464,2.712H80.5l0.768-2.712
	h1.24l0.776,2.712h0.048l0.472-2.712h1.224l-1.016,4h-1.328l-0.768-2.728h-0.048L81.1,88.24H79.772z M85.497,88.24v-4h1.224v4
	H85.497z M85.497,83.76v-1.12h1.224v1.12H85.497z M89.386,88.24c-0.824,0-1.312-0.393-1.312-1.2v-1.888h-0.848V84.24h0.848v-1.12
	h1.224v1.12h1.096v0.912h-1.096v1.68c0,0.256,0.151,0.4,0.407,0.4h0.688v1.008H89.386z M92.854,88.24
	c-0.824,0-1.312-0.393-1.312-1.2v-1.888h-0.849V84.24h0.849v-1.12h1.224v1.12h1.096v0.912h-1.096v1.68c0,0.256,0.151,0.4,0.407,0.4
	h0.688v1.008H92.854z M96.403,88.368c-1.04,0-2.088-0.647-2.088-2.128c0-1.352,0.896-2.128,2.128-2.128
	c1.168,0,2.064,0.64,2.064,1.968c0,0.191-0.017,0.328-0.041,0.432h-2.983c0.016,0.688,0.521,0.912,0.983,0.912
	c0.344,0,0.696-0.127,0.809-0.496h1.184C98.299,87.912,97.443,88.368,96.403,88.368z M95.508,85.808h1.768
	c0.016-0.512-0.344-0.816-0.864-0.816C95.907,84.992,95.531,85.312,95.508,85.808z M99.209,88.24v-4h1.225l-0.033,1.2h0.049
	c0.144-0.68,0.313-1.272,1.119-1.272c0.137,0,0.248,0.016,0.353,0.032v1.232h-0.353c-0.655,0-1.135,0.064-1.135,1.369v1.439H99.209z
	 M76.105,96.24V91.68h-1.84v-1.039h4.96v1.039h-1.84v4.561H76.105z M79.811,96.24v-5.6h1.224v2.56h0.048
	c0.088-0.647,0.592-1.08,1.232-1.08c0.992,0,1.352,0.624,1.352,1.712v2.408h-1.224v-2.28c0-0.544-0.248-0.831-0.688-0.831
	c-0.48,0-0.72,0.455-0.72,1v2.111H79.811z M84.545,96.24v-4h1.224l-0.032,1.2h0.048c0.144-0.681,0.312-1.272,1.12-1.272
	c0.136,0,0.248,0.016,0.352,0.032v1.231h-0.352c-0.656,0-1.136,0.064-1.136,1.369v1.439H84.545z M89.622,96.368
	c-1.04,0-2.088-0.647-2.088-2.128c0-1.352,0.896-2.128,2.128-2.128c1.168,0,2.064,0.64,2.064,1.968c0,0.191-0.017,0.328-0.041,0.432
	h-2.984c0.017,0.688,0.521,0.912,0.984,0.912c0.344,0,0.696-0.127,0.809-0.496h1.184C91.518,95.912,90.662,96.368,89.622,96.368z
	 M88.727,93.809h1.768c0.016-0.512-0.344-0.816-0.864-0.816C89.126,92.992,88.75,93.313,88.727,93.809z M93.596,96.336
	c-0.832,0-1.264-0.464-1.264-1.16c0-0.768,0.544-1.151,1.4-1.216l1.184-0.088v-0.128c0-0.4-0.2-0.688-0.664-0.688
	c-0.408,0-0.696,0.16-0.696,0.512h-1.272c0-0.832,0.697-1.456,2.009-1.456c1.239,0,1.849,0.601,1.849,1.521v1.336
	c0,0.215,0.071,0.295,0.303,0.295h0.185v0.977h-0.624c-0.664,0-1.008-0.256-1.008-0.768v-0.024h-0.049
	C94.836,95.872,94.388,96.336,93.596,96.336z M93.588,95.064c0,0.216,0.104,0.424,0.544,0.424c0.433,0,0.8-0.296,0.8-0.928
	l-0.703,0.063C93.716,94.672,93.588,94.848,93.588,95.064z M98.817,96.368c-1.048,0-1.769-0.864-1.769-2.097
	c0-1.231,0.664-2.151,1.713-2.151c0.72,0,1.208,0.504,1.336,0.983h0.049v-2.463h1.224v5.6h-1.224l0.016-0.848h-0.049
	C100.01,95.848,99.617,96.368,98.817,96.368z M98.306,94.256c0,0.793,0.44,1.088,0.937,1.088c0.487,0,0.936-0.304,0.936-1.088
	c0-0.8-0.448-1.111-0.936-1.111C98.754,93.145,98.306,93.456,98.306,94.256z"/>
<path fill="#FFFFFF" d="M42.449,143.087v-4.56h-1.84v-1.041h4.96v1.041h-1.84v4.56H42.449z M46.483,143.087l-1.016-4h1.224
	l0.464,2.712h0.056l0.768-2.712h1.24l0.776,2.712h0.048l0.472-2.712h1.224l-1.016,4h-1.328l-0.768-2.728h-0.048l-0.768,2.728H46.483
	z M52.208,143.087v-4h1.224v4H52.208z M52.208,138.607v-1.121h1.224v1.121H52.208z M56.097,143.087c-0.824,0-1.312-0.392-1.312-1.2
	v-1.888h-0.848v-0.912h0.848v-1.12h1.224v1.12h1.096v0.912h-1.096v1.681c0,0.256,0.152,0.399,0.408,0.399h0.688v1.008H56.097z
	 M59.565,143.087c-0.824,0-1.312-0.392-1.312-1.2v-1.888h-0.848v-0.912h0.848v-1.12h1.224v1.12h1.096v0.912h-1.096v1.681
	c0,0.256,0.152,0.399,0.408,0.399h0.688v1.008H59.565z M63.114,143.215c-1.04,0-2.088-0.648-2.088-2.128
	c0-1.353,0.896-2.128,2.128-2.128c1.168,0,2.064,0.641,2.064,1.968c0,0.192-0.016,0.328-0.04,0.433h-2.984
	c0.016,0.688,0.52,0.912,0.984,0.912c0.344,0,0.696-0.129,0.808-0.496h1.184C65.01,142.759,64.154,143.215,63.114,143.215z
	 M62.218,140.654h1.768c0.016-0.512-0.344-0.815-0.864-0.815C62.618,139.839,62.242,140.159,62.218,140.654z M65.92,143.087v-4
	h1.224l-0.032,1.2h0.048c0.144-0.68,0.312-1.271,1.12-1.271c0.136,0,0.248,0.016,0.352,0.031v1.232H68.28
	c-0.656,0-1.136,0.063-1.136,1.367v1.44H65.92z"/>
<circle opacity="0.4" fill="#FAFAFA" fill-opacity="0.2" stroke="#FFFFFF" stroke-width="0.3" enable-background="new    " cx="29.737" cy="76.824" r="28.842"/>
<path fill="#FFFFFF" d="M69.564,31.087v-5.6h1.28v5.6H69.564z M71.813,31.087v-4h1.216l-0.016,0.976h0.048
	c0.088-0.648,0.608-1.096,1.248-1.096c0.992,0,1.352,0.624,1.352,1.712v2.408h-1.224v-2.28c0-0.544-0.248-0.832-0.688-0.832
	c-0.48,0-0.72,0.456-0.72,1v2.112H71.813z M78.092,31.215c-1.08,0-1.792-0.368-1.792-1.44h1.248c0,0.344,0.2,0.608,0.6,0.608
	c0.368,0,0.544-0.16,0.544-0.376c0-0.192-0.128-0.36-0.544-0.424l-0.44-0.072c-0.76-0.128-1.248-0.552-1.248-1.216
	c0-0.864,0.672-1.336,1.768-1.336c1.136,0,1.776,0.488,1.784,1.456h-1.248c0-0.36-0.208-0.608-0.568-0.608s-0.536,0.176-0.536,0.384
	c0,0.176,0.112,0.336,0.504,0.4l0.44,0.072c0.896,0.144,1.32,0.528,1.32,1.28C79.924,30.743,79.228,31.215,78.092,31.215z
	 M82.395,31.087c-0.824,0-1.312-0.392-1.312-1.2v-1.888h-0.848v-0.912h0.848v-1.12h1.224v1.12h1.096v0.912h-1.096v1.68
	c0,0.256,0.152,0.4,0.408,0.4h0.688v1.008H82.395z M85.167,31.183c-0.832,0-1.264-0.464-1.264-1.16c0-0.768,0.544-1.152,1.4-1.216
	l1.184-0.088v-0.128c0-0.4-0.2-0.688-0.664-0.688c-0.408,0-0.696,0.16-0.696,0.512h-1.272c0-0.832,0.696-1.456,2.008-1.456
	c1.24,0,1.848,0.6,1.848,1.52v1.336c0,0.216,0.072,0.296,0.304,0.296H88.2v0.976h-0.624c-0.664,0-1.008-0.256-1.008-0.768v-0.024
	H86.52C86.408,30.719,85.959,31.183,85.167,31.183z M85.16,29.911c0,0.216,0.104,0.424,0.544,0.424c0.432,0,0.8-0.296,0.8-0.928
	l-0.704,0.064C85.288,29.519,85.16,29.695,85.16,29.911z M88.421,31.711c0-0.576,0.559-0.776,1.192-0.776v-0.048
	c-0.641,0-0.872-0.328-0.872-0.72c0-0.4,0.328-0.76,0.912-0.76v-0.048c-0.632-0.04-0.96-0.512-0.96-1.04c0-0.8,0.615-1.36,1.96-1.36
	h0.384c0.256,0,0.504-0.144,0.504-0.4v-0.272h1.28v0.16c0,0.616-0.513,0.904-0.96,0.904v0.04c0.264,0.032,0.775,0.352,0.775,0.96
	c0,0.896-0.808,1.28-1.824,1.28h-0.471c-0.313,0-0.473,0.088-0.473,0.288s0.16,0.288,0.473,0.288h0.983
	c1.16,0,1.608,0.504,1.608,1.128c0,0.744-0.641,1.352-2.353,1.352C88.829,32.687,88.421,32.231,88.421,31.711z M89.637,31.551
	c0,0.304,0.36,0.456,0.977,0.456c0.6,0,0.96-0.152,0.96-0.456c0-0.336-0.36-0.408-0.96-0.408
	C89.98,31.143,89.637,31.207,89.637,31.551z M89.941,28.335c0,0.432,0.392,0.584,0.712,0.584h0.032c0.32,0,0.711-0.152,0.711-0.584
	c0-0.448-0.391-0.608-0.711-0.608h-0.032C90.333,27.727,89.941,27.887,89.941,28.335z M93.438,31.087v-4h1.224l-0.032,1.2h0.049
	c0.143-0.68,0.311-1.272,1.119-1.272c0.137,0,0.248,0.016,0.352,0.032v1.232h-0.352c-0.656,0-1.136,0.064-1.136,1.368v1.44H93.438z
	 M97.863,31.183c-0.832,0-1.265-0.464-1.265-1.16c0-0.768,0.544-1.152,1.4-1.216l1.184-0.088v-0.128c0-0.4-0.2-0.688-0.663-0.688
	c-0.408,0-0.697,0.16-0.697,0.512h-1.271c0-0.832,0.695-1.456,2.008-1.456c1.24,0,1.849,0.6,1.849,1.52v1.336
	c0,0.216,0.071,0.296,0.304,0.296h0.184v0.976h-0.623c-0.664,0-1.009-0.256-1.009-0.768v-0.024h-0.048
	C99.104,30.719,98.654,31.183,97.863,31.183z M97.855,29.911c0,0.216,0.104,0.424,0.543,0.424c0.432,0,0.801-0.296,0.801-0.928
	l-0.705,0.064C97.982,29.519,97.855,29.695,97.855,29.911z M101.468,31.087v-4h1.224l-0.016,0.912h0.04
	c0.152-0.568,0.521-1.032,1.231-1.032c0.656,0,0.992,0.432,1.072,1.08h0.049c0.072-0.504,0.535-1.08,1.168-1.08
	c0.928,0,1.231,0.68,1.231,1.712v2.408h-1.224v-2.248c0-0.544-0.152-0.864-0.512-0.864c-0.4,0-0.648,0.32-0.648,0.864v2.248h-1.232
	v-2.248c0-0.544-0.151-0.864-0.504-0.864c-0.408,0-0.656,0.32-0.656,0.864v2.248H101.468z"/>
<path fill="#FFFFFF" d="M129.979,80.087v-5.6h1.272v4.56h2.776v1.04H129.979z M134.592,80.087v-4h1.225v4H134.592z M134.592,75.607
	v-1.12h1.225v1.12H134.592z M136.633,80.087v-4h1.217l-0.017,0.976h0.048c0.088-0.648,0.607-1.096,1.248-1.096
	c0.992,0,1.352,0.624,1.352,1.712v2.408h-1.224v-2.28c0-0.544-0.248-0.832-0.688-0.832c-0.479,0-0.719,0.456-0.719,1v2.112H136.633z
	 M141.305,80.087v-5.6h1.223v3.152l1.457-1.552h1.488l-1.609,1.6l1.809,2.4h-1.52l-1.104-1.584l-0.521,0.512v1.072H141.305z
	 M147.631,80.215c-1.04,0-2.088-0.648-2.088-2.128c0-1.352,0.896-2.128,2.128-2.128c1.168,0,2.063,0.64,2.063,1.968
	c0,0.192-0.016,0.328-0.039,0.432h-2.984c0.016,0.688,0.52,0.912,0.984,0.912c0.344,0,0.695-0.128,0.808-0.496h1.185
	C149.527,79.759,148.671,80.215,147.631,80.215z M146.734,77.655h1.769c0.017-0.512-0.344-0.816-0.864-0.816
	C147.135,76.839,146.759,77.159,146.734,77.655z M152.061,80.215c-1.047,0-1.768-0.864-1.768-2.096c0-1.232,0.664-2.152,1.712-2.152
	c0.72,0,1.208,0.504,1.336,0.984h0.048v-2.464h1.225v5.6h-1.225l0.016-0.848h-0.047C153.253,79.695,152.861,80.215,152.061,80.215z
	 M151.549,78.103c0,0.792,0.439,1.088,0.936,1.088c0.488,0,0.937-0.304,0.937-1.088c0-0.8-0.448-1.112-0.937-1.112
	C151.997,76.991,151.549,77.303,151.549,78.103z M155.564,80.087v-5.6h1.279v5.6H155.564z M157.813,80.087v-4h1.215l-0.016,0.976
	h0.049c0.088-0.648,0.607-1.096,1.248-1.096c0.991,0,1.352,0.624,1.352,1.712v2.408h-1.225v-2.28c0-0.544-0.248-0.832-0.688-0.832
	c-0.48,0-0.721,0.456-0.721,1v2.112H157.813z"/>
<path fill="#FFFFFF" d="M100.979,143.087v-5.601h1.297l2.416,3.729l-0.032-3.729h1.256v5.601h-1.296l-2.416-3.655l0.031,3.655
	H100.979z M108.811,143.215c-1.039,0-2.088-0.648-2.088-2.128c0-1.353,0.896-2.128,2.129-2.128c1.168,0,2.063,0.641,2.063,1.968
	c0,0.192-0.017,0.328-0.04,0.433h-2.984c0.017,0.688,0.521,0.912,0.984,0.912c0.344,0,0.695-0.129,0.809-0.496h1.184
	C110.707,142.759,109.852,143.215,108.811,143.215z M107.915,140.654h1.769c0.016-0.512-0.345-0.815-0.865-0.815
	C108.314,139.839,107.939,140.159,107.915,140.654z M112.227,143.087l-1.016-4h1.225l0.463,2.712h0.057l0.768-2.712h1.24
	l0.775,2.712h0.049l0.472-2.712h1.224l-1.016,4h-1.328l-0.768-2.728h-0.049l-0.768,2.728H112.227z M119.514,143.215
	c-1.08,0-1.791-0.367-1.791-1.439h1.248c0,0.344,0.199,0.607,0.6,0.607c0.367,0,0.543-0.16,0.543-0.376
	c0-0.192-0.127-0.36-0.543-0.424l-0.44-0.071c-0.76-0.129-1.248-0.553-1.248-1.217c0-0.863,0.673-1.336,1.769-1.336
	c1.136,0,1.775,0.488,1.783,1.456h-1.248c0-0.36-0.207-0.608-0.567-0.608s-0.536,0.176-0.536,0.385c0,0.176,0.111,0.336,0.504,0.399
	l0.439,0.072c0.896,0.144,1.32,0.528,1.32,1.28C121.346,142.743,120.65,143.215,119.514,143.215z M123.355,143.087
	c-0.808,0-1.224-0.392-1.224-1.2v-4.4h1.2v4.193c0,0.256,0.088,0.399,0.344,0.399h0.232v1.008H123.355z M126.482,143.215
	c-1.039,0-2.088-0.648-2.088-2.128c0-1.353,0.896-2.128,2.129-2.128c1.168,0,2.063,0.641,2.063,1.968
	c0,0.192-0.017,0.328-0.04,0.433h-2.984c0.017,0.688,0.521,0.912,0.984,0.912c0.344,0,0.696-0.129,0.809-0.496h1.184
	C128.379,142.759,127.523,143.215,126.482,143.215z M125.587,140.654h1.769c0.016-0.512-0.344-0.815-0.864-0.815
	C125.986,139.839,125.611,140.159,125.587,140.654z M130.949,143.087c-0.824,0-1.313-0.392-1.313-1.2v-1.888h-0.848v-0.912h0.848
	v-1.12h1.225v1.12h1.096v0.912h-1.096v1.681c0,0.256,0.152,0.399,0.408,0.399h0.688v1.008H130.949z M134.418,143.087
	c-0.824,0-1.313-0.392-1.313-1.2v-1.888h-0.848v-0.912h0.848v-1.12h1.225v1.12h1.096v0.912h-1.096v1.681
	c0,0.256,0.152,0.399,0.408,0.399h0.688v1.008H134.418z M137.967,143.215c-1.039,0-2.088-0.648-2.088-2.128
	c0-1.353,0.896-2.128,2.128-2.128c1.168,0,2.063,0.641,2.063,1.968c0,0.192-0.016,0.328-0.039,0.433h-2.984
	c0.016,0.688,0.52,0.912,0.984,0.912c0.344,0,0.695-0.129,0.808-0.496h1.185C139.863,142.759,139.007,143.215,137.967,143.215z
	 M137.07,140.654h1.769c0.017-0.512-0.344-0.815-0.864-0.815C137.471,139.839,137.096,140.159,137.07,140.654z M140.773,143.087v-4
	h1.224l-0.032,1.2h0.049c0.144-0.68,0.312-1.271,1.119-1.271c0.137,0,0.248,0.016,0.352,0.031v1.232h-0.352
	c-0.656,0-1.136,0.063-1.136,1.367v1.44H140.773z"/>
<path fill="#FFFFFF" d="M16.681,80.087l-0.008-2.104l-2.104-3.496h1.408l1.32,2.352l1.32-2.352h1.408l-2.12,3.496l0.016,2.104
	H16.681z M21.467,80.215c-1.272,0-2.128-0.816-2.128-2.128s0.856-2.128,2.128-2.128s2.128,0.816,2.128,2.128
	S22.739,80.215,21.467,80.215z M20.579,78.087c0,0.816,0.424,1.096,0.888,1.096c0.464,0,0.888-0.28,0.888-1.096
	c0-0.808-0.424-1.104-0.888-1.104C21.002,76.983,20.579,77.279,20.579,78.087z M25.575,80.207c-0.984,0-1.304-0.624-1.304-1.712
	v-2.408h1.224v2.28c0,0.544,0.208,0.832,0.648,0.832c0.464,0,0.704-0.456,0.704-1v-2.112h1.224v4h-1.224l0.016-0.976h-0.056
	C26.727,79.759,26.223,80.207,25.575,80.207z M33.677,80.207c-0.984,0-1.304-0.624-1.304-1.712v-2.408h1.224v2.28
	c0,0.544,0.208,0.832,0.648,0.832c0.464,0,0.704-0.456,0.704-1v-2.112h1.224v4h-1.224l0.016-0.976h-0.056
	C34.829,79.759,34.325,80.207,33.677,80.207z M39.589,80.215c-0.8,0-1.192-0.52-1.304-0.976h-0.048l0.016,0.848h-1.224v-5.6h1.224
	v2.464h0.048c0.136-0.48,0.624-0.984,1.344-0.984c1.04,0,1.712,0.92,1.712,2.152C41.357,79.351,40.629,80.215,39.589,80.215z
	 M38.222,78.103c0,0.784,0.448,1.088,0.936,1.088c0.504,0,0.944-0.296,0.944-1.088c0-0.8-0.448-1.112-0.944-1.112
	C38.669,76.991,38.222,77.303,38.222,78.103z M44.005,80.215c-1.04,0-2.088-0.648-2.088-2.128c0-1.352,0.896-2.128,2.128-2.128
	c1.168,0,2.064,0.64,2.064,1.968c0,0.192-0.016,0.328-0.04,0.432h-2.984c0.016,0.688,0.52,0.912,0.984,0.912
	c0.344,0,0.696-0.128,0.808-0.496h1.184C45.901,79.759,45.045,80.215,44.005,80.215z M43.109,77.655h1.768
	c0.016-0.512-0.344-0.816-0.864-0.816C43.509,76.839,43.133,77.159,43.109,77.655z"/>
<g>
	<path fill="#FFFFFF" d="M29.708,80.215v-4.697h-1.842v-1.046h4.948v1.046h-1.85v4.697H29.708z"/>
</g>
</svg>
